<?xml version="1.0" encoding="UTF-8" standalone="no"?>
<svg
   xmlns:dc="http://purl.org/dc/elements/1.1/"
   xmlns:cc="http://creativecommons.org/ns#"
   xmlns:rdf="http://www.w3.org/1999/02/22-rdf-syntax-ns#"
   xmlns:svg="http://www.w3.org/2000/svg"
   xmlns="http://www.w3.org/2000/svg"
   xmlns:sodipodi="http://sodipodi.sourceforge.net/DTD/sodipodi-0.dtd"
   xmlns:inkscape="http://www.inkscape.org/namespaces/inkscape"
   version="1.1"
   width="152px"
   height="150px"
   style="shape-rendering:geometricPrecision; text-rendering:geometricPrecision; image-rendering:optimizeQuality; fill-rule:evenodd; clip-rule:evenodd"
   id="svg230"
   sodipodi:docname="logomurals.svg"
   inkscape:version="0.92.5 (2060ec1f9f, 2020-04-08)">
  <metadata
     id="metadata236">
    <rdf:RDF>
      <cc:Work
         rdf:about="">
        <dc:format>image/svg+xml</dc:format>
        <dc:type
           rdf:resource="http://purl.org/dc/dcmitype/StillImage" />
        <dc:title />
      </cc:Work>
    </rdf:RDF>
  </metadata>
  <defs
     id="defs234" />
  <sodipodi:namedview
     pagecolor="#ffffff"
     bordercolor="#666666"
     borderopacity="1"
     objecttolerance="10"
     gridtolerance="10"
     guidetolerance="10"
     inkscape:pageopacity="0"
     inkscape:pageshadow="2"
     inkscape:window-width="1440"
     inkscape:window-height="839"
     id="namedview232"
     showgrid="false"
     inkscape:zoom="2.2250293"
     inkscape:cx="140.27598"
     inkscape:cy="52.930158"
     inkscape:window-x="0"
     inkscape:window-y="29"
     inkscape:window-maximized="1"
     inkscape:current-layer="svg230" />
  <g
     id="g12"
     transform="translate(0.6420653,2.4878459)">
    <path
       style="opacity:1;fill:#010102"
       d="M 58.5,-0.5 73,-2.073013 87.5,-0.5 c 26.255,5.55967 45.088,20.5597 56.5,45 1.684,4.2155 2.851,8.5488 3.5,13 1.306,10.3402 1.306,20.6735 0,31 -5.622,25.799 -20.622,43.965 -45,54.5 -4.2215,1.638 -8.5549,2.805 -13,3.5 -10.329,1.303 -20.6623,1.303 -31,0 C 27.7073,138.708 8.7073,119.374 1.5,88.5 0.193877,78.1735 0.193877,67.8402 1.5,57.5 2.14911,53.0488 3.31578,48.7155 5,44.5 16.0479,21.2742 33.8812,6.27419 58.5,-0.5 Z"
       id="path10"
       inkscape:connector-curvature="0"
       sodipodi:nodetypes="ccccccccccccc" />
  </g>
  <g
     id="g24">
    <path
       style="opacity:1"
       fill="#672e85"
       d="M 103.5,22.5 C 101.712,22.0295 99.8784,21.6962 98,21.5C 95.9919,21.3068 94.4919,21.9735 93.5,23.5C 90.5856,26.1886 88.5856,29.522 87.5,33.5C 86.8165,33.8627 86.1499,34.1961 85.5,34.5C 86.9964,29.3457 89.6631,24.8457 93.5,21C 96.5,20.3333 99.5,20.3333 102.5,21C 103.056,21.3826 103.389,21.8826 103.5,22.5 Z"
       id="path22" />
  </g>
  <g
     id="g28">
    <path
       style="opacity:1"
       fill="#6c76d4"
       d="M 54.5,22.5 C 57.1667,23.1667 58.8333,24.8333 59.5,27.5C 56.6314,24.488 55.2981,25.1547 55.5,29.5C 55.1667,29.5 54.8333,29.5 54.5,29.5C 53.8333,28.5 53.1667,27.5 52.5,26.5C 44.5205,23.7494 45.1871,22.4161 54.5,22.5 Z"
       id="path26" />
  </g>
  <g
     id="g32">
    <path
       style="opacity:1"
       fill="#23052d"
       d="M 95.5,26.5 C 98.188,26.1658 100.521,26.8325 102.5,28.5C 102.784,30.4147 102.451,32.0813 101.5,33.5C 101.938,29.0917 99.938,27.4251 95.5,28.5C 95.5,27.8333 95.5,27.1667 95.5,26.5 Z"
       id="path30" />
  </g>
  <g
     id="g36">
    <path
       style="opacity:1"
       fill="#060514"
       d="M 52.5,26.5 C 53.1667,27.5 53.8333,28.5 54.5,29.5C 54.5,35.5 54.5,41.5 54.5,47.5C 52.9862,45.636 51.6528,43.636 50.5,41.5C 48.9712,38.2473 47.6378,34.9139 46.5,31.5C 46.6618,27.6738 48.6618,26.0072 52.5,26.5 Z"
       id="path34" />
  </g>
  <g
     id="g40">
    <path
       style="opacity:1"
       fill="#08030d"
       d="M 95.5,28.5 C 99.938,27.4251 101.938,29.0917 101.5,33.5C 101.5,34.1667 101.5,34.8333 101.5,35.5C 99.1962,39.1155 97.1962,42.7822 95.5,46.5C 94.5111,41.0247 94.1778,35.358 94.5,29.5C 94.5,28.8333 94.8333,28.5 95.5,28.5 Z"
       id="path38" />
  </g>
  <g
     id="g44">
    <path
       style="opacity:1"
       fill="#865bdb"
       d="M 59.5,27.5 C 63.2753,32.7154 66.2753,38.382 68.5,44.5C 66.5491,43.2842 65.0491,41.6175 64,39.5C 63.6664,41.8473 63.833,44.1806 64.5,46.5C 63.5,46.1667 62.8333,45.5 62.5,44.5C 62.4431,43.391 62.1098,42.391 61.5,41.5C 62.3235,39.5454 62.4901,37.5454 62,35.5C 61.586,35.9574 61.086,36.2907 60.5,36.5C 59.2341,34.5961 57.5675,33.2628 55.5,32.5C 55.5,31.5 55.5,30.5 55.5,29.5C 55.2981,25.1547 56.6314,24.488 59.5,27.5 Z"
       id="path42" />
  </g>
  <g
     id="g48">
    <path
       style="opacity:1"
       fill="#82158a"
       d="M 102.5,28.5 C 103.461,30.2646 103.795,32.2646 103.5,34.5C 102.833,34.8333 102.167,35.1667 101.5,35.5C 101.5,34.8333 101.5,34.1667 101.5,33.5C 102.451,32.0813 102.784,30.4147 102.5,28.5 Z"
       id="path46" />
  </g>
  <g
     id="g52">
    <path
       style="opacity:1"
       fill="#1c2350"
       d="M 94.5,29.5 C 94.1778,35.358 94.5111,41.0247 95.5,46.5C 95.1667,47.8333 94.8333,49.1667 94.5,50.5C 94.1667,50.5 93.8333,50.5 93.5,50.5C 93.5,50.1667 93.5,49.8333 93.5,49.5C 93.5,43.5 93.5,37.5 93.5,31.5C 93.3284,30.5084 93.6618,29.8417 94.5,29.5 Z"
       id="path50" />
  </g>
  <g
     id="g56">
    <path
       style="opacity:1"
       fill="#9454ee"
       d="M 93.5,23.5 C 93.2852,25.1788 93.9519,26.1788 95.5,26.5C 95.5,27.1667 95.5,27.8333 95.5,28.5C 94.8333,28.5 94.5,28.8333 94.5,29.5C 93.6618,29.8417 93.3284,30.5084 93.5,31.5C 92.5489,32.9187 92.2155,34.5853 92.5,36.5C 91.5,36.5 90.5,36.5 89.5,36.5C 89.6085,38.5138 88.9418,40.1805 87.5,41.5C 87.5,41.8333 87.5,42.1667 87.5,42.5C 85.7483,42.5824 84.7483,41.7491 84.5,40C 85.2335,38.2341 85.5668,36.4008 85.5,34.5C 86.1499,34.1961 86.8165,33.8627 87.5,33.5C 88.5856,29.522 90.5856,26.1886 93.5,23.5 Z"
       id="path54" />
  </g>
  <g
     id="g60">
    <path
       style="opacity:1"
       fill="#ba35df"
       d="M 55.5,32.5 C 57.5675,33.2628 59.2341,34.5961 60.5,36.5C 61.086,36.2907 61.586,35.9574 62,35.5C 62.4901,37.5454 62.3235,39.5454 61.5,41.5C 60.5119,46.6405 60.1786,51.9738 60.5,57.5C 59.603,58.5981 58.7697,58.5981 58,57.5C 57.51,56.2068 57.3433,54.8734 57.5,53.5C 56.8826,53.3893 56.3826,53.056 56,52.5C 55.5004,45.8417 55.3337,39.175 55.5,32.5 Z"
       id="path58" />
  </g>
  <g
     id="g64">
    <path
       style="opacity:1"
       fill="#578de4"
       d="M 93.5,31.5 C 93.5,37.5 93.5,43.5 93.5,49.5C 92.0652,50.9133 91.0652,52.58 90.5,54.5C 90.665,51.1501 90.4983,47.8168 90,44.5C 89.7679,43.2625 89.2679,42.2625 88.5,41.5C 88.1667,41.5 87.8333,41.5 87.5,41.5C 88.9418,40.1805 89.6085,38.5138 89.5,36.5C 90.5,36.5 91.5,36.5 92.5,36.5C 92.2155,34.5853 92.5489,32.9187 93.5,31.5 Z"
       id="path62" />
  </g>
  <g
     id="g68">
    <path
       style="opacity:1"
       fill="#dc1df1"
       d="M 103.5,22.5 C 103.833,22.5 104.167,22.5 104.5,22.5C 104.833,23.1667 105.167,23.8333 105.5,24.5C 105.709,25.9217 106.209,27.255 107,28.5C 107.5,58.4981 107.667,88.4981 107.5,118.5C 107.727,120.933 106.727,122.599 104.5,123.5C 102.744,122.448 102.077,120.781 102.5,118.5C 103.167,118.5 103.5,118.167 103.5,117.5C 104.663,93.0034 104.83,68.3368 104,43.5C 102.603,42.7741 101.769,41.6075 101.5,40C 101.954,38.0614 102.621,36.228 103.5,34.5C 103.795,32.2646 103.461,30.2646 102.5,28.5C 100.521,26.8325 98.188,26.1658 95.5,26.5C 93.9519,26.1788 93.2852,25.1788 93.5,23.5C 94.4919,21.9735 95.9919,21.3068 98,21.5C 99.8784,21.6962 101.712,22.0295 103.5,22.5 Z"
       id="path66" />
  </g>
  <g
     id="g72">
    <path
       style="opacity:1"
       fill="#4a99da"
       d="M 54.5,22.5 C 45.1871,22.4161 44.5205,23.7494 52.5,26.5C 48.6618,26.0072 46.6618,27.6738 46.5,31.5C 47.6378,34.9139 48.9712,38.2473 50.5,41.5C 49.5,41.5 48.5,41.5 47.5,41.5C 47.6567,40.1266 47.49,38.7932 47,37.5C 46.6667,37.8333 46.3333,38.1667 46,38.5C 45.5814,37.3279 44.9147,36.3279 44,35.5C 42.6022,63.1426 42.1022,90.8093 42.5,118.5C 41.5019,88.3379 41.1685,58.0046 41.5,27.5C 44.1751,21.6398 48.5084,19.9732 54.5,22.5 Z"
       id="path70" />
  </g>
  <g
     id="g76">
    <path
       style="opacity:1"
       fill="#528de0"
       d="M 50.5,41.5 C 51.6528,43.636 52.9862,45.636 54.5,47.5C 53.3029,52.4456 53.3029,57.1123 54.5,61.5C 52.4376,56.3752 50.1043,51.3752 47.5,46.5C 47.6309,45.6236 47.2975,44.9569 46.5,44.5C 45.1774,69.5657 45.1774,94.5657 46.5,119.5C 45.1919,121.638 45.5252,123.638 47.5,125.5C 45.5956,125.262 44.2623,124.262 43.5,122.5C 43.1667,121.167 42.8333,119.833 42.5,118.5C 42.1022,90.8093 42.6022,63.1426 44,35.5C 44.9147,36.3279 45.5814,37.3279 46,38.5C 46.3333,38.1667 46.6667,37.8333 47,37.5C 47.49,38.7932 47.6567,40.1266 47.5,41.5C 48.5,41.5 49.5,41.5 50.5,41.5 Z"
       id="path74" />
  </g>
  <g
     id="g80">
    <path
       style="opacity:1"
       fill="#4787a9"
       d="M 41.5,27.5 C 41.1685,58.0046 41.5019,88.3379 42.5,118.5C 42.8333,119.833 43.1667,121.167 43.5,122.5C 42.2101,121.942 41.3768,120.942 41,119.5C 40.1694,88.6639 40.3361,57.9973 41.5,27.5 Z"
       id="path78" />
  </g>
  <g
     id="g84">
    <path
       style="opacity:1"
       fill="#1d335c"
       d="M 47.5,46.5 C 46.1818,70.7059 46.1818,95.0392 47.5,119.5C 47.1667,119.5 46.8333,119.5 46.5,119.5C 45.1774,94.5657 45.1774,69.5657 46.5,44.5C 47.2975,44.9569 47.6309,45.6236 47.5,46.5 Z"
       id="path82" />
  </g>
  <g
     id="g88">
    <path
       style="opacity:1"
       fill="#dc1bf5"
       d="M 57.5,53.5 C 56.4265,47.8846 56.2599,42.2179 57,36.5C 59.0212,39.6404 59.8546,43.1404 59.5,47C 59.3333,49.5 59.1667,52 59,54.5C 58.6174,53.944 58.1174,53.6107 57.5,53.5 Z"
       id="path86" />
  </g>
  <g
     id="g92">
    <path
       style="opacity:1"
       fill="#3d0145"
       d="M 61.5,41.5 C 62.1098,42.391 62.4431,43.391 62.5,44.5C 61.5104,50.31 61.1771,56.31 61.5,62.5C 60.5489,61.0813 60.2155,59.4147 60.5,57.5C 60.1786,51.9738 60.5119,46.6405 61.5,41.5 Z"
       id="path90" />
  </g>
  <g
     id="g96">
    <path
       style="opacity:1"
       fill="#7a66de"
       d="M 85.5,34.5 C 85.5668,36.4008 85.2335,38.2341 84.5,40C 84.7483,41.7491 85.7483,42.5824 87.5,42.5C 85.9814,45.0439 84.648,47.7105 83.5,50.5C 81.3946,51.9875 79.728,53.9875 78.5,56.5C 77.5481,54.9547 77.2148,53.288 77.5,51.5C 79.4179,45.3786 82.0846,39.7119 85.5,34.5 Z"
       id="path94" />
  </g>
  <g
     id="g100">
    <path
       style="opacity:1"
       fill="#0b0c28"
       d="M 87.5,41.5 C 87.8333,41.5 88.1667,41.5 88.5,41.5C 88.5,47.5 88.5,53.5 88.5,59.5C 88.5,60.5 88.5,61.5 88.5,62.5C 86.3057,64.2214 85.139,66.5547 85,69.5C 84.0471,71.3731 82.8804,71.7065 81.5,70.5C 81.5,70.1667 81.5,69.8333 81.5,69.5C 82.4959,69.5858 83.3292,69.2524 84,68.5C 85.1662,63.3344 86.3328,58.1678 87.5,53C 87.1667,52.1667 86.8333,51.3333 86.5,50.5C 85.5832,51.1272 84.5832,51.4606 83.5,51.5C 83.5,51.1667 83.5,50.8333 83.5,50.5C 84.648,47.7105 85.9814,45.0439 87.5,42.5C 87.5,42.1667 87.5,41.8333 87.5,41.5 Z"
       id="path98" />
  </g>
  <g
     id="g104">
    <path
       style="opacity:1"
       fill="#5292ca"
       d="M 88.5,41.5 C 89.2679,42.2625 89.7679,43.2625 90,44.5C 90.4983,47.8168 90.665,51.1501 90.5,54.5C 90.2041,56.403 89.5375,58.0697 88.5,59.5C 88.5,53.5 88.5,47.5 88.5,41.5 Z"
       id="path102" />
  </g>
  <g
     id="g108">
    <path
       style="opacity:1"
       fill="#020108"
       d="M 47.5,46.5 C 50.1043,51.3752 52.4376,56.3752 54.5,61.5C 54.5,80.5 54.5,99.5 54.5,118.5C 53.1805,119.942 51.5138,120.608 49.5,120.5C 48.5084,120.672 47.8417,120.338 47.5,119.5C 46.1818,95.0392 46.1818,70.7059 47.5,46.5 Z"
       id="path106" />
  </g>
  <g
     id="g112">
    <path
       style="opacity:1"
       fill="#0c0513"
       d="M 62.5,44.5 C 62.8333,45.5 63.5,46.1667 64.5,46.5C 66.3255,51.4844 68.6589,56.1511 71.5,60.5C 71.5,61.5 71.5,62.5 71.5,63.5C 69.9657,66.593 67.9657,69.2597 65.5,71.5C 64.4473,68.3929 63.114,65.3929 61.5,62.5C 61.1771,56.31 61.5104,50.31 62.5,44.5 Z"
       id="path110" />
  </g>
  <g
     id="g116">
    <path
       style="opacity:1"
       fill="#6b1c81"
       d="M 100.5,49.5 C 99.2171,51.6064 98.3838,53.9398 98,56.5C 97.2917,57.3805 96.4584,58.0472 95.5,58.5C 95.5,58.1667 95.5,57.8333 95.5,57.5C 96.9307,55.8113 97.7641,53.8113 98,51.5C 98.7083,50.6195 99.5416,49.9528 100.5,49.5 Z"
       id="path114" />
  </g>
  <g
     id="g120">
    <path
       style="opacity:1"
       fill="#a143e1"
       d="M 68.5,44.5 C 70.8741,47.9492 72.8741,51.6159 74.5,55.5C 75.0838,58.285 74.0838,59.9517 71.5,60.5C 68.6589,56.1511 66.3255,51.4844 64.5,46.5C 63.833,44.1806 63.6664,41.8473 64,39.5C 65.0491,41.6175 66.5491,43.2842 68.5,44.5 Z"
       id="path118" />
  </g>
  <g
     id="g124">
    <path
       style="opacity:1"
       fill="#746ee2"
       d="M 93.5,49.5 C 93.5,49.8333 93.5,50.1667 93.5,50.5C 92.9142,54.9984 91.2475,58.9984 88.5,62.5C 88.5,61.5 88.5,60.5 88.5,59.5C 89.5375,58.0697 90.2041,56.403 90.5,54.5C 91.0652,52.58 92.0652,50.9133 93.5,49.5 Z"
       id="path122" />
  </g>
  <g
     id="g128">
    <path
       style="opacity:1"
       fill="#040108"
       d="M 101.5,47.5 C 102.498,70.9941 102.831,94.6608 102.5,118.5C 101.18,119.942 99.5138,120.608 97.5,120.5C 96.5084,120.672 95.8417,120.338 95.5,119.5C 94.5251,100.546 94.1918,81.5464 94.5,62.5C 95.2341,61.2921 95.5674,59.9587 95.5,58.5C 96.4584,58.0472 97.2917,57.3805 98,56.5C 98.3838,53.9398 99.2171,51.6064 100.5,49.5C 101.338,49.1583 101.672,48.4916 101.5,47.5 Z"
       id="path126" />
  </g>
  <g
     id="g132">
    <path
       style="opacity:1"
       fill="#ad25b9"
       d="M 105.5,24.5 C 106.79,25.0577 107.623,26.0577 108,27.5C 108.831,58.0028 108.664,88.3361 107.5,118.5C 107.667,88.4981 107.5,58.4981 107,28.5C 106.209,27.255 105.709,25.9217 105.5,24.5 Z"
       id="path130" />
  </g>
  <g
     id="g136">
    <path
       style="opacity:1"
       fill="#33003b"
       d="M 104.5,22.5 C 107.05,22.5608 108.55,23.8941 109,26.5C 109.667,57.5 109.667,88.5 109,119.5C 107.87,123.468 105.37,125.802 101.5,126.5C 101.5,126.167 101.5,125.833 101.5,125.5C 103.027,125.573 104.027,124.906 104.5,123.5C 106.727,122.599 107.727,120.933 107.5,118.5C 108.664,88.3361 108.831,58.0028 108,27.5C 107.623,26.0577 106.79,25.0577 105.5,24.5C 105.167,23.8333 104.833,23.1667 104.5,22.5 Z"
       id="path134" />
  </g>
  <g
     id="g140">
    <path
       style="opacity:1"
       fill="#270b3d"
       d="M 79.5,59.5 C 80.0396,62.8647 80.7063,66.198 81.5,69.5C 80.0213,67.3218 78.688,64.9885 77.5,62.5C 77.9321,61.2905 78.5987,60.2905 79.5,59.5 Z"
       id="path138" />
  </g>
  <g
     id="g144">
    <path
       style="opacity:1"
       fill="#520b5c"
       d="M 103.5,117.5 C 103.5,118.167 103.167,118.5 102.5,118.5C 102.831,94.6608 102.498,70.9941 101.5,47.5C 101.369,46.6236 101.702,45.9569 102.5,45.5C 103.5,69.4907 103.833,93.4907 103.5,117.5 Z"
       id="path142" />
  </g>
  <g
     id="g148">
    <path
       style="opacity:1"
       fill="#667dda"
       d="M 83.5,50.5 C 83.5,50.8333 83.5,51.1667 83.5,51.5C 81.659,53.8485 80.3257,56.5152 79.5,59.5C 78.5987,60.2905 77.9321,61.2905 77.5,62.5C 75.0311,63.6067 74.0311,65.6067 74.5,68.5C 74.5,69.1667 74.1667,69.5 73.5,69.5C 73.7475,67.1417 73.0808,65.1417 71.5,63.5C 71.5,62.5 71.5,61.5 71.5,60.5C 74.0838,59.9517 75.0838,58.285 74.5,55.5C 75.5,54.1667 76.5,52.8333 77.5,51.5C 77.2148,53.288 77.5481,54.9547 78.5,56.5C 79.728,53.9875 81.3946,51.9875 83.5,50.5 Z"
       id="path146" />
  </g>
  <g
     id="g152">
    <path
       style="opacity:1"
       fill="#c432e1"
       d="M 103.5,34.5 C 102.621,36.228 101.954,38.0614 101.5,40C 101.769,41.6075 102.603,42.7741 104,43.5C 104.83,68.3368 104.663,93.0034 103.5,117.5C 103.833,93.4907 103.5,69.4907 102.5,45.5C 101.702,45.9569 101.369,46.6236 101.5,47.5C 101.672,48.4916 101.338,49.1583 100.5,49.5C 99.5416,49.9528 98.7083,50.6195 98,51.5C 97.7641,53.8113 96.9307,55.8113 95.5,57.5C 94.3509,57.2089 93.6842,56.3756 93.5,55C 93.7728,53.4672 94.1062,51.9672 94.5,50.5C 94.8333,49.1667 95.1667,47.8333 95.5,46.5C 97.1962,42.7822 99.1962,39.1155 101.5,35.5C 102.167,35.1667 102.833,34.8333 103.5,34.5 Z"
       id="path150" />
  </g>
  <g
     id="g156">
    <path
       style="opacity:1"
       fill="#04030a"
       d="M 81.5,69.5 C 80.7063,66.198 80.0396,62.8647 79.5,59.5C 80.3257,56.5152 81.659,53.8485 83.5,51.5C 84.5832,51.4606 85.5832,51.1272 86.5,50.5C 86.8333,51.3333 87.1667,52.1667 87.5,53C 86.3328,58.1678 85.1662,63.3344 84,68.5C 83.3292,69.2524 82.4959,69.5858 81.5,69.5 Z"
       id="path154" />
  </g>
  <g
     id="g160">
    <path
       style="opacity:1"
       fill="#6c42a9"
       d="M 54.5,29.5 C 54.8333,29.5 55.1667,29.5 55.5,29.5C 55.5,30.5 55.5,31.5 55.5,32.5C 55.3337,39.175 55.5004,45.8417 56,52.5C 56.3826,53.056 56.8826,53.3893 57.5,53.5C 57.3433,54.8734 57.51,56.2068 58,57.5C 58.7697,58.5981 59.603,58.5981 60.5,57.5C 60.2155,59.4147 60.5489,61.0813 61.5,62.5C 63.114,65.3929 64.4473,68.3929 65.5,71.5C 65.8064,74.3854 65.4731,77.0521 64.5,79.5C 63.8333,78.8333 63.1667,78.1667 62.5,77.5C 62.1667,76.1667 61.8333,74.8333 61.5,73.5C 62.4015,69.7593 61.0681,67.7593 57.5,67.5C 57.7852,65.712 57.4519,64.0453 56.5,62.5C 55.5004,81.1548 55.1671,99.8214 55.5,118.5C 55.1667,118.5 54.8333,118.5 54.5,118.5C 54.5,99.5 54.5,80.5 54.5,61.5C 53.3029,57.1123 53.3029,52.4456 54.5,47.5C 54.5,41.5 54.5,35.5 54.5,29.5 Z"
       id="path158" />
  </g>
  <g
     id="g164">
    <path
       style="opacity:1"
       fill="#c930e9"
       d="M 77.5,62.5 C 78.688,64.9885 80.0213,67.3218 81.5,69.5C 81.5,69.8333 81.5,70.1667 81.5,70.5C 81.6775,71.6948 82.0109,72.8615 82.5,74C 82.2517,75.7491 81.2517,76.5824 79.5,76.5C 77.8333,73.8333 76.1667,71.1667 74.5,68.5C 74.0311,65.6067 75.0311,63.6067 77.5,62.5 Z"
       id="path162" />
  </g>
  <g
     id="g168">
    <path
       style="opacity:1"
       fill="#9452e5"
       d="M 93.5,50.5 C 93.8333,50.5 94.1667,50.5 94.5,50.5C 94.1062,51.9672 93.7728,53.4672 93.5,55C 93.6842,56.3756 94.3509,57.2089 95.5,57.5C 95.5,57.8333 95.5,58.1667 95.5,58.5C 95.5674,59.9587 95.2341,61.2921 94.5,62.5C 93.6618,62.8417 93.3284,63.5084 93.5,64.5C 91.142,67.5459 89.142,70.8792 87.5,74.5C 86.3077,76.1131 85.3077,77.7798 84.5,79.5C 83.2794,80.0283 82.1127,80.695 81,81.5C 80.7679,80.2625 80.2679,79.2625 79.5,78.5C 79.5,77.8333 79.5,77.1667 79.5,76.5C 81.2517,76.5824 82.2517,75.7491 82.5,74C 82.0109,72.8615 81.6775,71.6948 81.5,70.5C 82.8804,71.7065 84.0471,71.3731 85,69.5C 85.139,66.5547 86.3057,64.2214 88.5,62.5C 91.2475,58.9984 92.9142,54.9984 93.5,50.5 Z"
       id="path166" />
  </g>
  <g
     id="g172">
    <path
       style="opacity:1"
       fill="#4a91d8"
       d="M 71.5,63.5 C 73.0808,65.1417 73.7475,67.1417 73.5,69.5C 72.9553,71.5932 72.122,73.5932 71,75.5C 69.1781,80.8293 71.0115,83.496 76.5,83.5C 75.653,84.9663 74.3197,85.7996 72.5,86C 73.1079,86.8699 73.9412,87.3699 75,87.5C 76.4397,86.8524 77.9397,86.5191 79.5,86.5C 71.8648,90.2509 66.8648,87.9175 64.5,79.5C 65.4731,77.0521 65.8064,74.3854 65.5,71.5C 67.9657,69.2597 69.9657,66.593 71.5,63.5 Z"
       id="path170" />
  </g>
  <g
     id="g176">
    <path
       style="opacity:1"
       fill="#17274b"
       d="M 94.5,62.5 C 94.1918,81.5464 94.5251,100.546 95.5,119.5C 95.1667,119.5 94.8333,119.5 94.5,119.5C 93.5138,101.243 93.1804,82.9098 93.5,64.5C 93.3284,63.5084 93.6618,62.8417 94.5,62.5 Z"
       id="path174" />
  </g>
  <g
     id="g180">
    <path
       style="opacity:1"
       fill="#0e0919"
       d="M 74.5,68.5 C 76.1667,71.1667 77.8333,73.8333 79.5,76.5C 79.5,77.1667 79.5,77.8333 79.5,78.5C 78.7515,80.3325 77.7515,81.9991 76.5,83.5C 71.0115,83.496 69.1781,80.8293 71,75.5C 72.122,73.5932 72.9553,71.5932 73.5,69.5C 74.1667,69.5 74.5,69.1667 74.5,68.5 Z"
       id="path178" />
  </g>
  <g
     id="g184">
    <path
       style="opacity:1"
       fill="#c135d9"
       d="M 61.5,73.5 C 60.6687,88.3277 60.1687,103.328 60,118.5C 59.7679,119.737 59.2679,120.737 58.5,121.5C 59.7772,104.182 59.7772,86.8484 58.5,69.5C 57.914,69.2907 57.414,68.9574 57,68.5C 56.8315,85.3384 56.3315,102.005 55.5,118.5C 55.1671,99.8214 55.5004,81.1548 56.5,62.5C 57.4519,64.0453 57.7852,65.712 57.5,67.5C 61.0681,67.7593 62.4015,69.7593 61.5,73.5 Z"
       id="path182" />
  </g>
  <g
     id="g188">
    <path
       style="opacity:1"
       fill="#db1df3"
       d="M 58.5,121.5 C 58.1667,122.5 57.5,123.167 56.5,123.5C 55.5,123.5 54.5,123.5 53.5,123.5C 53.6287,121.784 53.962,120.117 54.5,118.5C 54.8333,118.5 55.1667,118.5 55.5,118.5C 56.3315,102.005 56.8315,85.3384 57,68.5C 57.414,68.9574 57.914,69.2907 58.5,69.5C 59.7772,86.8484 59.7772,104.182 58.5,121.5 Z"
       id="path186" />
  </g>
  <g
     id="g192">
    <path
       style="opacity:1"
       fill="#3d0043"
       d="M 61.5,73.5 C 61.8333,74.8333 62.1667,76.1667 62.5,77.5C 61.6689,91.3273 61.1689,105.327 61,119.5C 60.3512,122.647 58.5179,124.647 55.5,125.5C 55.8333,124.833 56.1667,124.167 56.5,123.5C 57.5,123.167 58.1667,122.5 58.5,121.5C 59.2679,120.737 59.7679,119.737 60,118.5C 60.1687,103.328 60.6687,88.3277 61.5,73.5 Z"
       id="path190" />
  </g>
  <g
     id="g196">
    <path
       style="opacity:1"
       fill="#6e71d6"
       d="M 79.5,78.5 C 80.2679,79.2625 80.7679,80.2625 81,81.5C 82.1127,80.695 83.2794,80.0283 84.5,79.5C 84.3964,81.7028 83.7298,83.7028 82.5,85.5C 81.609,86.1098 80.609,86.4431 79.5,86.5C 77.9397,86.5191 76.4397,86.8524 75,87.5C 73.9412,87.3699 73.1079,86.8699 72.5,86C 74.3197,85.7996 75.653,84.9663 76.5,83.5C 77.7515,81.9991 78.7515,80.3325 79.5,78.5 Z"
       id="path194" />
  </g>
  <g
     id="g200">
    <path
       style="opacity:1"
       fill="#568dd7"
       d="M 93.5,64.5 C 93.1804,82.9098 93.5138,101.243 94.5,119.5C 94.063,121.616 94.063,123.616 94.5,125.5C 91.3776,124.05 89.3776,121.717 88.5,118.5C 88.8293,103.657 88.496,88.9905 87.5,74.5C 89.142,70.8792 91.142,67.5459 93.5,64.5 Z"
       id="path198" />
  </g>
  <g
     id="g212">
    <path
       style="opacity:1"
       d="M 87.5,74.5 C 88.496,88.9905 88.8293,103.657 88.5,118.5C 87.6697,108.341 87.1697,98.0081 87,87.5C 86.3023,84.5894 84.8023,83.9227 82.5,85.5C 83.7298,83.7028 84.3964,81.7028 84.5,79.5C 85.3077,77.7798 86.3077,76.1131 87.5,74.5 Z"
       id="path210"
       fill="#041325" />
  </g>
  <g
     id="g216">
    <path
       style="opacity:1"
       fill="#6b60ca"
       d="M 46.5,119.5 C 46.8333,119.5 47.1667,119.5 47.5,119.5C 47.8417,120.338 48.5084,120.672 49.5,120.5C 47.9187,124.923 49.5854,126.59 54.5,125.5C 52.1667,126.833 49.8333,126.833 47.5,125.5C 45.5252,123.638 45.1919,121.638 46.5,119.5 Z"
       id="path214" />
  </g>
  <g
     id="g220">
    <path
       style="opacity:1"
       d="M 94.5,119.5 C 94.8333,119.5 95.1667,119.5 95.5,119.5C 95.8417,120.338 96.5084,120.672 97.5,120.5C 95.7372,124.416 97.0706,126.083 101.5,125.5C 101.5,125.833 101.5,126.167 101.5,126.5C 98.9407,126.802 96.6074,126.468 94.5,125.5C 94.063,123.616 94.063,121.616 94.5,119.5 Z"
       id="path218"
       fill="#6c5fc9" />
  </g>
  <g
     id="g224">
    <path
       style="opacity:1"
       fill="#924dd7"
       d="M 54.5,118.5 C 53.962,120.117 53.6287,121.784 53.5,123.5C 54.5,123.5 55.5,123.5 56.5,123.5C 56.1667,124.167 55.8333,124.833 55.5,125.5C 55.1667,125.5 54.8333,125.5 54.5,125.5C 49.5854,126.59 47.9187,124.923 49.5,120.5C 51.5138,120.608 53.1805,119.942 54.5,118.5 Z"
       id="path222" />
  </g>
  <g
     id="g228">
    <path
       style="opacity:1"
       fill="#9250df"
       d="M 102.5,118.5 C 102.077,120.781 102.744,122.448 104.5,123.5C 104.027,124.906 103.027,125.573 101.5,125.5C 97.0706,126.083 95.7372,124.416 97.5,120.5C 99.5138,120.608 101.18,119.942 102.5,118.5 Z"
       id="path226" />
  </g>
</svg>
