<?xml version="1.0" encoding="utf-8"?>
<!-- Generator: Adobe Illustrator 26.0.1, SVG Export Plug-In . SVG Version: 6.00 Build 0)  -->
<svg version="1.1" id="Layer_1" xmlns="http://www.w3.org/2000/svg" xmlns:xlink="http://www.w3.org/1999/xlink" x="0px" y="0px"
	 viewBox="0 0 500 118" style="enable-background:new 0 0 500 118;" xml:space="preserve">
<style type="text/css">
	.st0{fill:none;stroke:url(#SVGID_1_);stroke-width:2.9789;stroke-miterlimit:10;}
	
		.st1{fill:none;stroke:url(#SVGID_00000081616990531495130030000013480160779474638490_);stroke-width:2.9789;stroke-miterlimit:10;}
	
		.st2{fill:none;stroke:url(#SVGID_00000135656725660729046780000009921331535409741232_);stroke-width:2.9789;stroke-miterlimit:10;}
	
		.st3{fill:none;stroke:url(#SVGID_00000020395981787956668620000016461965628380061328_);stroke-width:2.9789;stroke-miterlimit:10;}
	
		.st4{fill:none;stroke:url(#SVGID_00000180339651319097582340000000796421057467726243_);stroke-width:2.9789;stroke-miterlimit:10;}
	
		.st5{fill:none;stroke:url(#SVGID_00000141427076208667764710000003389858279501877144_);stroke-width:2.9789;stroke-miterlimit:10;}
	
		.st6{fill:none;stroke:url(#SVGID_00000111184025444863869950000002393780214492600741_);stroke-width:2.9789;stroke-miterlimit:10;}
	
		.st7{fill:none;stroke:url(#SVGID_00000178917288149905897340000001852769287750546337_);stroke-width:2.9789;stroke-miterlimit:10;}
	
		.st8{fill:none;stroke:url(#SVGID_00000078730638842966114770000007371090698864057500_);stroke-width:2.9789;stroke-miterlimit:10;}
	
		.st9{fill:none;stroke:url(#SVGID_00000050652353544069291710000013855576397460823995_);stroke-width:2.9789;stroke-miterlimit:10;}
	
		.st10{fill:none;stroke:url(#SVGID_00000010996995833056686790000012027365329345151918_);stroke-width:2.9789;stroke-miterlimit:10;}
	
		.st11{fill:none;stroke:url(#SVGID_00000111164724600019864910000005596349847269227930_);stroke-width:2.9789;stroke-miterlimit:10;}
	
		.st12{fill:none;stroke:url(#SVGID_00000143600813013051779070000016609848079350522498_);stroke-width:2.9789;stroke-miterlimit:10;}
	
		.st13{fill:none;stroke:url(#SVGID_00000026147629879203519850000011191481329027735482_);stroke-width:2.9789;stroke-miterlimit:10;}
	
		.st14{fill:none;stroke:url(#SVGID_00000110431200766740847660000014915839933015693731_);stroke-width:2.9789;stroke-miterlimit:10;}
	
		.st15{fill:none;stroke:url(#SVGID_00000061456593827204816560000014227187144476832442_);stroke-width:2.9789;stroke-miterlimit:10;}
	
		.st16{fill:none;stroke:url(#SVGID_00000022543023417869862750000014334715592283401407_);stroke-width:2.9789;stroke-miterlimit:10;}
	
		.st17{fill:none;stroke:url(#SVGID_00000106105986349701936280000012479232017433240484_);stroke-width:2.9789;stroke-miterlimit:10;}
	
		.st18{fill:none;stroke:url(#SVGID_00000061429536847575375280000004433106865985602702_);stroke-width:2.9789;stroke-miterlimit:10;}
	
		.st19{fill:none;stroke:url(#SVGID_00000029019176560485850340000004502173257739066038_);stroke-width:2.6684;stroke-miterlimit:10;}
	
		.st20{fill:none;stroke:url(#SVGID_00000179607108962212601780000007715434149516978321_);stroke-width:2.6684;stroke-miterlimit:10;}
	
		.st21{fill:none;stroke:url(#SVGID_00000083083137900184418110000015056689705967095229_);stroke-width:2.9706;stroke-miterlimit:10;}
	
		.st22{fill:none;stroke:url(#SVGID_00000026845898324837528850000005671857526790612917_);stroke-width:2.9706;stroke-miterlimit:10;}
	
		.st23{fill:none;stroke:url(#SVGID_00000067235448361726090720000003771543458080067762_);stroke-width:2.9706;stroke-miterlimit:10;}
	
		.st24{fill:none;stroke:url(#SVGID_00000070811293629473470610000017580545997625955722_);stroke-width:2.9706;stroke-miterlimit:10;}
	
		.st25{fill:none;stroke:url(#SVGID_00000119115238828909020870000002763200273290206339_);stroke-width:2.2435;stroke-miterlimit:10;}
	
		.st26{fill:none;stroke:url(#SVGID_00000067221936137070737220000016728249100152087714_);stroke-width:2.9706;stroke-miterlimit:10;}
	
		.st27{fill:none;stroke:url(#SVGID_00000072257490066137858670000016516777470054194616_);stroke-width:2.9706;stroke-miterlimit:10;}
	
		.st28{fill:none;stroke:url(#SVGID_00000075160000382828225690000012770194756892501934_);stroke-width:2.9706;stroke-miterlimit:10;}
	
		.st29{fill:none;stroke:url(#SVGID_00000030471691829087599060000003241043486300804282_);stroke-width:2.9706;stroke-miterlimit:10;}
	
		.st30{fill:none;stroke:url(#SVGID_00000003079510492247461400000007449170632052924317_);stroke-width:2.9706;stroke-miterlimit:10;}
	
		.st31{fill:none;stroke:url(#SVGID_00000137843881685951321740000018160099490218781869_);stroke-width:2.9706;stroke-miterlimit:10;}
	
		.st32{fill:none;stroke:url(#SVGID_00000139256116109725058280000008777327721426487180_);stroke-width:2.9706;stroke-miterlimit:10;}
	
		.st33{fill:none;stroke:url(#SVGID_00000134218268799320884330000001878828273280350116_);stroke-width:2.9706;stroke-miterlimit:10;}
	
		.st34{fill:none;stroke:url(#SVGID_00000146493970739934981110000008309398337982018441_);stroke-width:2.9706;stroke-miterlimit:10;}
	
		.st35{fill:none;stroke:url(#SVGID_00000045615939220704757750000017491985282924831117_);stroke-width:2.7709;stroke-miterlimit:10;}
	
		.st36{fill:none;stroke:url(#SVGID_00000059268654562142397820000016049571404487753629_);stroke-width:2.7709;stroke-miterlimit:10;}
	
		.st37{fill:none;stroke:url(#SVGID_00000131350923067458965770000016592816481559305121_);stroke-width:2.7709;stroke-miterlimit:10;}
	
		.st38{fill:none;stroke:url(#SVGID_00000140697418513475307180000005077289928145361029_);stroke-width:3.2572;stroke-miterlimit:10;}
	
		.st39{fill:none;stroke:url(#SVGID_00000074430000999905436220000000342669260540263853_);stroke-width:2.9706;stroke-miterlimit:10;}
</style>
<g>
	<g>
		<g>
			<linearGradient id="SVGID_1_" gradientUnits="userSpaceOnUse" x1="372.2806" y1="64.3326" x2="395.4992" y2="64.3326">
				<stop  offset="2.663895e-07" style="stop-color:#29ABE2"/>
				<stop  offset="1" style="stop-color:#FF00FF"/>
			</linearGradient>
			<path class="st0" d="M390.28,35.88L390.28,35.88c-2.57-0.58-5.14,1.05-5.71,3.62l-10.68,47.58c-0.58,2.57,1.05,5.14,3.62,5.71
				l0,0c2.57,0.58,5.14-1.05,5.71-3.62l10.68-47.58C394.47,39.03,392.84,36.46,390.28,35.88z"/>
			
				<linearGradient id="SVGID_00000066494304873268329360000014061551922630098819_" gradientUnits="userSpaceOnUse" x1="382.8208" y1="64.1294" x2="407.2479" y2="64.1294">
				<stop  offset="2.663895e-07" style="stop-color:#29ABE2"/>
				<stop  offset="1" style="stop-color:#FF00FF"/>
			</linearGradient>
			
				<path style="fill:none;stroke:url(#SVGID_00000066494304873268329360000014061551922630098819_);stroke-width:2.9789;stroke-miterlimit:10;" d="
				M387.92,35.85L387.92,35.85c2.55-0.64,5.16,0.92,5.8,3.47l11.89,47.29c0.64,2.55-0.92,5.16-3.47,5.8l0,0
				c-2.55,0.64-5.16-0.92-5.8-3.47l-11.89-47.29C383.81,39.1,385.37,36.49,387.92,35.85z"/>
		</g>
		<g>
			
				<linearGradient id="SVGID_00000137832315468422157540000000475332585104514993_" gradientUnits="userSpaceOnUse" x1="410.7318" y1="64.3796" x2="422.011" y2="64.3796">
				<stop  offset="2.663895e-07" style="stop-color:#29ABE2"/>
				<stop  offset="1" style="stop-color:#FF00FF"/>
			</linearGradient>
			
				<path style="fill:none;stroke:url(#SVGID_00000137832315468422157540000000475332585104514993_);stroke-width:2.9789;stroke-miterlimit:10;" d="
				M416.37,92.68L416.37,92.68c-2.28,0-4.15-1.87-4.15-4.15V40.23c0-2.28,1.87-4.15,4.15-4.15l0,0c2.28,0,4.15,1.87,4.15,4.15v48.29
				C420.52,90.81,418.65,92.68,416.37,92.68z"/>
			
				<linearGradient id="SVGID_00000014623760333151655410000013993112213925418654_" gradientUnits="userSpaceOnUse" x1="410.7318" y1="88.149" x2="440.8757" y2="88.149">
				<stop  offset="2.663895e-07" style="stop-color:#29ABE2"/>
				<stop  offset="1" style="stop-color:#FF00FF"/>
			</linearGradient>
			
				<path style="fill:none;stroke:url(#SVGID_00000014623760333151655410000013993112213925418654_);stroke-width:2.9789;stroke-miterlimit:10;" d="
				M434.86,92.68h-18.11c-2.49,0-4.53-2.04-4.53-4.53v0c0-2.49,2.04-4.53,4.53-4.53h18.11c2.49,0,4.53,2.04,4.53,4.53v0
				C439.39,90.64,437.35,92.68,434.86,92.68z"/>
		</g>
		<g>
			
				<linearGradient id="SVGID_00000136398759079455588410000002332763792358270598_" gradientUnits="userSpaceOnUse" x1="442.9049" y1="64.6045" x2="476.4894" y2="64.6045">
				<stop  offset="2.663895e-07" style="stop-color:#29ABE2"/>
				<stop  offset="1" style="stop-color:#FF00FF"/>
			</linearGradient>
			
				<path style="fill:none;stroke:url(#SVGID_00000136398759079455588410000002332763792358270598_);stroke-width:2.9789;stroke-miterlimit:10;" d="
				M472.39,92.35L472.39,92.35c-2.24,1.02-4.91,0.03-5.93-2.21L444.8,42.79c-1.02-2.24-0.03-4.91,2.21-5.93v0
				c2.24-1.02,4.91-0.03,5.93,2.21l21.66,47.34C475.62,88.65,474.63,91.32,472.39,92.35z"/>
			
				<linearGradient id="SVGID_00000057149947263607599290000017227896935755592116_" gradientUnits="userSpaceOnUse" x1="443.9713" y1="87.7897" x2="476.2367" y2="87.7897">
				<stop  offset="2.663895e-07" style="stop-color:#29ABE2"/>
				<stop  offset="1" style="stop-color:#FF00FF"/>
			</linearGradient>
			
				<path style="fill:none;stroke:url(#SVGID_00000057149947263607599290000017227896935755592116_);stroke-width:2.9789;stroke-miterlimit:10;" d="
				M469.87,92.67h-19.52c-2.68,0-4.88-2.2-4.88-4.88v0c0-2.68,2.2-4.88,4.88-4.88h19.52c2.68,0,4.88,2.2,4.88,4.88v0
				C474.75,90.47,472.55,92.67,469.87,92.67z"/>
			
				<linearGradient id="SVGID_00000089558123107253211960000003001993712612737958_" gradientUnits="userSpaceOnUse" x1="443.1577" y1="41.4194" x2="475.4231" y2="41.4194">
				<stop  offset="2.663895e-07" style="stop-color:#29ABE2"/>
				<stop  offset="1" style="stop-color:#FF00FF"/>
			</linearGradient>
			
				<path style="fill:none;stroke:url(#SVGID_00000089558123107253211960000003001993712612737958_);stroke-width:2.9789;stroke-miterlimit:10;" d="
				M469.05,46.3h-19.52c-2.68,0-4.88-2.2-4.88-4.88v0c0-2.68,2.2-4.88,4.88-4.88h19.52c2.68,0,4.88,2.2,4.88,4.88v0
				C473.93,44.1,471.74,46.3,469.05,46.3z"/>
		</g>
		<g>
			
				<linearGradient id="SVGID_00000150069935930741312200000007725013538619500476_" gradientUnits="userSpaceOnUse" x1="313.4693" y1="59.8521" x2="324.7486" y2="59.8521">
				<stop  offset="2.663895e-07" style="stop-color:#29ABE2"/>
				<stop  offset="1" style="stop-color:#FF00FF"/>
			</linearGradient>
			
				<path style="fill:none;stroke:url(#SVGID_00000150069935930741312200000007725013538619500476_);stroke-width:2.9789;stroke-miterlimit:10;" d="
				M319.11,83.62L319.11,83.62c-2.28,0-4.15-1.87-4.15-4.15V40.23c0-2.29,1.86-4.15,4.15-4.15l0,0c2.28,0,4.15,1.87,4.15,4.15v39.24
				C323.26,81.75,321.39,83.62,319.11,83.62z"/>
			
				<linearGradient id="SVGID_00000080185198350646029380000006946443785882606483_" gradientUnits="userSpaceOnUse" x1="293.0955" y1="59.8521" x2="304.3748" y2="59.8521">
				<stop  offset="2.663895e-07" style="stop-color:#29ABE2"/>
				<stop  offset="1" style="stop-color:#FF00FF"/>
			</linearGradient>
			
				<path style="fill:none;stroke:url(#SVGID_00000080185198350646029380000006946443785882606483_);stroke-width:2.9789;stroke-miterlimit:10;" d="
				M298.74,83.62L298.74,83.62c-2.28,0-4.15-1.87-4.15-4.15V40.23c0-2.28,1.87-4.15,4.15-4.15h0c2.28,0,4.15,1.87,4.15,4.15v39.24
				C302.89,81.75,301.02,83.62,298.74,83.62z"/>
			
				<linearGradient id="SVGID_00000010291007297043922850000000060043599709165448_" gradientUnits="userSpaceOnUse" x1="293.0955" y1="86.6299" x2="324.7486" y2="86.6299">
				<stop  offset="2.663895e-07" style="stop-color:#29ABE2"/>
				<stop  offset="1" style="stop-color:#FF00FF"/>
			</linearGradient>
			
				<path style="fill:none;stroke:url(#SVGID_00000010291007297043922850000000060043599709165448_);stroke-width:2.9789;stroke-miterlimit:10;" d="
				M294.58,78.72c0,19.12,28.67,19.12,28.67,0"/>
			
				<linearGradient id="SVGID_00000091711270638374949870000015138852933985242019_" gradientUnits="userSpaceOnUse" x1="301.396" y1="81.6583" x2="316.4482" y2="81.6583">
				<stop  offset="2.663895e-07" style="stop-color:#29ABE2"/>
				<stop  offset="1" style="stop-color:#FF00FF"/>
			</linearGradient>
			
				<path style="fill:none;stroke:url(#SVGID_00000091711270638374949870000015138852933985242019_);stroke-width:2.9789;stroke-miterlimit:10;" d="
				M302.89,77.96c-0.01,7.98,12.1,7.77,12.07,0"/>
		</g>
		<g>
			
				<linearGradient id="SVGID_00000036933114846498139400000007424723938711211392_" gradientUnits="userSpaceOnUse" x1="249.3494" y1="64.3796" x2="260.6287" y2="64.3796">
				<stop  offset="2.663895e-07" style="stop-color:#29ABE2"/>
				<stop  offset="1" style="stop-color:#FF00FF"/>
			</linearGradient>
			
				<path style="fill:none;stroke:url(#SVGID_00000036933114846498139400000007424723938711211392_);stroke-width:2.9789;stroke-miterlimit:10;" d="
				M254.99,92.68L254.99,92.68c-2.28,0-4.15-1.87-4.15-4.15V40.23c0-2.28,1.87-4.15,4.15-4.15h0c2.28,0,4.15,1.87,4.15,4.15v48.29
				C259.14,90.81,257.27,92.68,254.99,92.68z"/>
			
				<linearGradient id="SVGID_00000126299811138908754020000005336636120198241428_" gradientUnits="userSpaceOnUse" x1="276.5144" y1="64.3796" x2="287.7937" y2="64.3796">
				<stop  offset="2.663895e-07" style="stop-color:#29ABE2"/>
				<stop  offset="1" style="stop-color:#FF00FF"/>
			</linearGradient>
			
				<path style="fill:none;stroke:url(#SVGID_00000126299811138908754020000005336636120198241428_);stroke-width:2.9789;stroke-miterlimit:10;" d="
				M282.15,92.68L282.15,92.68c-2.28,0-4.15-1.87-4.15-4.15V40.23c0-2.28,1.87-4.15,4.15-4.15l0,0c2.28,0,4.15,1.87,4.15,4.15v48.29
				C286.3,90.81,284.44,92.68,282.15,92.68z"/>
			<g>
				
					<linearGradient id="SVGID_00000051384061305264326860000002750299187221766793_" gradientUnits="userSpaceOnUse" x1="249.4297" y1="53.7343" x2="274.2755" y2="53.7343">
					<stop  offset="2.663895e-07" style="stop-color:#29ABE2"/>
					<stop  offset="1" style="stop-color:#FF00FF"/>
				</linearGradient>
				
					<path style="fill:none;stroke:url(#SVGID_00000051384061305264326860000002750299187221766793_);stroke-width:2.9789;stroke-miterlimit:10;" d="
					M270.5,70.94L270.5,70.94c-2.04,1.03-4.55,0.2-5.57-1.84l-13.56-26.95c-1.03-2.04-0.24-4.61,1.8-5.64l0,0
					c2.04-1.03,4.58-0.13,5.61,1.91l13.56,26.95C273.37,67.41,272.54,69.92,270.5,70.94z"/>
				
					<linearGradient id="SVGID_00000017505636271898409220000015420867018061220008_" gradientUnits="userSpaceOnUse" x1="263.0201" y1="53.7492" x2="287.858" y2="53.7492">
					<stop  offset="2.663895e-07" style="stop-color:#29ABE2"/>
					<stop  offset="1" style="stop-color:#FF00FF"/>
				</linearGradient>
				
					<path style="fill:none;stroke:url(#SVGID_00000017505636271898409220000015420867018061220008_);stroke-width:2.9789;stroke-miterlimit:10;" d="
					M266.79,70.94L266.79,70.94c2.04,1.03,4.55,0.2,5.57-1.84l13.56-26.95c1.03-2.04,0.2-4.55-1.84-5.57v0
					c-2.11-0.89-4.3-0.62-5.57,1.84l-13.56,26.95C263.92,67.41,264.75,69.92,266.79,70.94z"/>
			</g>
		</g>
		<g>
			
				<linearGradient id="SVGID_00000106125221794958225930000000072138229552703115_" gradientUnits="userSpaceOnUse" x1="349.4939" y1="78.2104" x2="370.3396" y2="78.2104">
				<stop  offset="2.663895e-07" style="stop-color:#29ABE2"/>
				<stop  offset="1" style="stop-color:#FF00FF"/>
			</linearGradient>
			
				<path style="fill:none;stroke:url(#SVGID_00000106125221794958225930000000072138229552703115_);stroke-width:2.9789;stroke-miterlimit:10;" d="
				M366.32,92.25c-2.37,1.08-5.35-0.38-6.66-3.25l-8.06-17.69c-1.31-2.87-0.45-6.08,1.92-7.16c2.37-1.08,5.35,0.38,6.66,3.25
				l8.06,17.69C369.55,87.96,368.69,91.18,366.32,92.25z"/>
			
				<linearGradient id="SVGID_00000001649092805827841660000014490768451814012565_" gradientUnits="userSpaceOnUse" x1="330.0504" y1="70.8305" x2="342.0843" y2="70.8305">
				<stop  offset="2.663895e-07" style="stop-color:#29ABE2"/>
				<stop  offset="1" style="stop-color:#FF00FF"/>
			</linearGradient>
			
				<path style="fill:none;stroke:url(#SVGID_00000001649092805827841660000014490768451814012565_);stroke-width:2.9789;stroke-miterlimit:10;" d="
				M336.07,92.75L336.07,92.75c-2.49,0-4.53-2.04-4.53-4.53V53.44c0-2.49,2.04-4.53,4.53-4.53l0,0c2.49,0,4.53,2.04,4.53,4.53v34.78
				C340.59,90.71,338.56,92.75,336.07,92.75z"/>
			
				<linearGradient id="SVGID_00000161624182631563963050000008362744078848535170_" gradientUnits="userSpaceOnUse" x1="330.0504" y1="53.8154" x2="368.4948" y2="53.8154">
				<stop  offset="2.663895e-07" style="stop-color:#29ABE2"/>
				<stop  offset="1" style="stop-color:#FF00FF"/>
			</linearGradient>
			
				<path style="fill:none;stroke:url(#SVGID_00000161624182631563963050000008362744078848535170_);stroke-width:2.9789;stroke-miterlimit:10;" d="
				M354.12,71.55h-16.64c-3.27,0-5.95-2.68-5.95-5.95V48.72c0-6.95,5.69-12.64,12.64-12.64h9.34c7.42,0,13.48,6.07,13.48,13.48v9.1
				C367.01,65.75,361.21,71.55,354.12,71.55z"/>
			
				<linearGradient id="SVGID_00000030483420589301237310000017043324544685703306_" gradientUnits="userSpaceOnUse" x1="339.4827" y1="54.1927" x2="360.5716" y2="54.1927">
				<stop  offset="2.663895e-07" style="stop-color:#29ABE2"/>
				<stop  offset="1" style="stop-color:#FF00FF"/>
			</linearGradient>
			
				<path style="fill:none;stroke:url(#SVGID_00000030483420589301237310000017043324544685703306_);stroke-width:2.9789;stroke-miterlimit:10;" d="
				M352.11,64.38h-7.91c-1.77,0-3.22-1.45-3.22-3.22V50.85c0-3.77,3.08-6.85,6.85-6.85h3.96c4.02,0,7.3,3.29,7.3,7.3v6.09
				C359.08,61.24,355.94,64.38,352.11,64.38z"/>
		</g>
	</g>
	<g>
		<g>
			
				<linearGradient id="SVGID_00000145055946177613780460000008198533073639619457_" gradientUnits="userSpaceOnUse" x1="232.0315" y1="64.1063" x2="242.9772" y2="64.1063">
				<stop  offset="2.663895e-07" style="stop-color:#29ABE2"/>
				<stop  offset="1" style="stop-color:#FF00FF"/>
			</linearGradient>
			
				<path style="fill:none;stroke:url(#SVGID_00000145055946177613780460000008198533073639619457_);stroke-width:2.6684;stroke-miterlimit:10;" d="
				M237.93,83.23h-0.84c-2.04,0-3.72-1.67-3.72-3.72V48.7c0-2.05,1.66-3.72,3.72-3.72h0.84c2.04,0,3.72,1.67,3.72,3.72v30.82
				C241.64,81.56,239.97,83.23,237.93,83.23z"/>
			
				<linearGradient id="SVGID_00000112601604057036514470000014093359395185674655_" gradientUnits="userSpaceOnUse" x1="211.7143" y1="64.1063" x2="222.6601" y2="64.1063">
				<stop  offset="2.663895e-07" style="stop-color:#29ABE2"/>
				<stop  offset="1" style="stop-color:#FF00FF"/>
			</linearGradient>
			
				<path style="fill:none;stroke:url(#SVGID_00000112601604057036514470000014093359395185674655_);stroke-width:2.6684;stroke-miterlimit:10;" d="
				M217.61,83.23h-0.84c-2.04,0-3.72-1.67-3.72-3.72V48.7c0-2.04,1.67-3.72,3.72-3.72h0.84c2.04,0,3.72,1.67,3.72,3.72v30.82
				C221.33,81.56,219.65,83.23,217.61,83.23z"/>
			
				<linearGradient id="SVGID_00000181801713687131329110000017830444916496383160_" gradientUnits="userSpaceOnUse" x1="211.5632" y1="86.2321" x2="243.1283" y2="86.2321">
				<stop  offset="2.663895e-07" style="stop-color:#29ABE2"/>
				<stop  offset="1" style="stop-color:#FF00FF"/>
			</linearGradient>
			
				<path style="fill:none;stroke:url(#SVGID_00000181801713687131329110000017830444916496383160_);stroke-width:2.9706;stroke-miterlimit:10;" d="
				M213.05,78.34c0,19.06,28.59,19.06,28.59,0"/>
			
				<linearGradient id="SVGID_00000006706606771865069400000009610412913343555201_" gradientUnits="userSpaceOnUse" x1="219.8406" y1="81.2743" x2="234.851" y2="81.2743">
				<stop  offset="2.663895e-07" style="stop-color:#29ABE2"/>
				<stop  offset="1" style="stop-color:#FF00FF"/>
			</linearGradient>
			
				<path style="fill:none;stroke:url(#SVGID_00000006706606771865069400000009610412913343555201_);stroke-width:2.9706;stroke-miterlimit:10;" d="
				M221.33,77.59c-0.01,7.96,12.07,7.75,12.04,0"/>
			
				<linearGradient id="SVGID_00000085946866966211902170000000112601757668015762_" gradientUnits="userSpaceOnUse" x1="211.5632" y1="-1576.8442" x2="243.1283" y2="-1576.8442" gradientTransform="matrix(1 0 0 -1 0 -1534.9474)">
				<stop  offset="2.663895e-07" style="stop-color:#29ABE2"/>
				<stop  offset="1" style="stop-color:#FF00FF"/>
			</linearGradient>
			
				<path style="fill:none;stroke:url(#SVGID_00000085946866966211902170000000112601757668015762_);stroke-width:2.9706;stroke-miterlimit:10;" d="
				M213.05,49.79c0-19.06,28.59-19.06,28.59,0"/>
			
				<linearGradient id="SVGID_00000114765657532837212940000012531326095613120956_" gradientUnits="userSpaceOnUse" x1="219.8406" y1="-1581.8021" x2="234.851" y2="-1581.8021" gradientTransform="matrix(1 0 0 -1 0 -1534.9474)">
				<stop  offset="2.663895e-07" style="stop-color:#29ABE2"/>
				<stop  offset="1" style="stop-color:#FF00FF"/>
			</linearGradient>
			
				<path style="fill:none;stroke:url(#SVGID_00000114765657532837212940000012531326095613120956_);stroke-width:2.9706;stroke-miterlimit:10;" d="
				M221.33,50.54c-0.01-7.96,12.07-7.75,12.04,0"/>
		</g>
		<g>
			
				<linearGradient id="SVGID_00000102546485772964492600000000131827229934764701_" gradientUnits="userSpaceOnUse" x1="104.759" y1="76.9613" x2="115.2798" y2="76.9613">
				<stop  offset="2.663895e-07" style="stop-color:#29ABE2"/>
				<stop  offset="1" style="stop-color:#FF00FF"/>
			</linearGradient>
			
				<path style="fill:none;stroke:url(#SVGID_00000102546485772964492600000000131827229934764701_);stroke-width:2.2435;stroke-miterlimit:10;" d="
				M111.03,93.06h-2.03c-1.72,0-3.13-1.41-3.13-3.13V63.99c0-1.72,1.41-3.13,3.13-3.13h2.03c1.72,0,3.13,1.41,3.13,3.13v25.94
				C114.16,91.65,112.75,93.06,111.03,93.06z"/>
			<g>
				
					<linearGradient id="SVGID_00000154397374720778661280000018299273124502320560_" gradientUnits="userSpaceOnUse" x1="90.9725" y1="52.6336" x2="115.7493" y2="52.6336">
					<stop  offset="2.663895e-07" style="stop-color:#29ABE2"/>
					<stop  offset="1" style="stop-color:#FF00FF"/>
				</linearGradient>
				
					<path style="fill:none;stroke:url(#SVGID_00000154397374720778661280000018299273124502320560_);stroke-width:2.9706;stroke-miterlimit:10;" d="
					M111.99,69.8L111.99,69.8c-2.03,1.02-4.53,0.2-5.56-1.84L92.9,41.08c-1.02-2.03-0.23-4.6,1.8-5.62l0,0
					c2.03-1.02,4.57-0.13,5.6,1.9l13.53,26.88C114.85,66.27,114.02,68.77,111.99,69.8z"/>
				
					<linearGradient id="SVGID_00000163033522850334343020000009176406511507702424_" gradientUnits="userSpaceOnUse" x1="104.5252" y1="52.6485" x2="129.294" y2="52.6485">
					<stop  offset="2.663895e-07" style="stop-color:#29ABE2"/>
					<stop  offset="1" style="stop-color:#FF00FF"/>
				</linearGradient>
				
					<path style="fill:none;stroke:url(#SVGID_00000163033522850334343020000009176406511507702424_);stroke-width:2.9706;stroke-miterlimit:10;" d="
					M108.29,69.8L108.29,69.8c2.03,1.02,4.53,0.2,5.56-1.84l13.53-26.88c1.02-2.03,0.2-4.53-1.84-5.56l0,0
					c-2.1-0.89-4.29-0.61-5.56,1.84l-13.53,26.88C105.43,66.27,106.25,68.77,108.29,69.8z"/>
			</g>
		</g>
		<g>
			
				<linearGradient id="SVGID_00000114041317274137850460000008592734792773613702_" gradientUnits="userSpaceOnUse" x1="131.6546" y1="70.4766" x2="143.655" y2="70.4766">
				<stop  offset="2.663895e-07" style="stop-color:#29ABE2"/>
				<stop  offset="1" style="stop-color:#FF00FF"/>
			</linearGradient>
			
				<path style="fill:none;stroke:url(#SVGID_00000114041317274137850460000008592734792773613702_);stroke-width:2.9706;stroke-miterlimit:10;" d="
				M137.65,92.34L137.65,92.34c-2.48,0-4.51-2.03-4.51-4.51V53.13c0-2.48,2.03-4.51,4.51-4.51l0,0c2.48,0,4.51,2.03,4.51,4.51v34.69
				C142.17,90.3,140.14,92.34,137.65,92.34z"/>
			
				<linearGradient id="SVGID_00000029031098831265385800000007144888566608239236_" gradientUnits="userSpaceOnUse" x1="131.6546" y1="53.5088" x2="169.9921" y2="53.5088">
				<stop  offset="2.663895e-07" style="stop-color:#29ABE2"/>
				<stop  offset="1" style="stop-color:#FF00FF"/>
			</linearGradient>
			
				<path style="fill:none;stroke:url(#SVGID_00000029031098831265385800000007144888566608239236_);stroke-width:2.9706;stroke-miterlimit:10;" d="
				M155.66,71.19h-16.59c-3.26,0-5.93-2.67-5.93-5.93V48.43c0-6.93,5.67-12.61,12.61-12.61h9.31c7.4,0,13.45,6.05,13.45,13.45v9.07
				C168.51,65.41,162.73,71.19,155.66,71.19z"/>
			
				<linearGradient id="SVGID_00000100383443191703837040000003394434328328884633_" gradientUnits="userSpaceOnUse" x1="141.0607" y1="53.885" x2="162.0909" y2="53.885">
				<stop  offset="2.663895e-07" style="stop-color:#29ABE2"/>
				<stop  offset="1" style="stop-color:#FF00FF"/>
			</linearGradient>
			
				<path style="fill:none;stroke:url(#SVGID_00000100383443191703837040000003394434328328884633_);stroke-width:2.9706;stroke-miterlimit:10;" d="
				M153.65,64.04h-7.89c-1.77,0-3.21-1.45-3.21-3.21V50.55c0-3.76,3.07-6.83,6.83-6.83h3.95c4.01,0,7.28,3.28,7.28,7.28v6.08
				C160.61,60.91,157.47,64.04,153.65,64.04z"/>
		</g>
		<g>
			
				<linearGradient id="SVGID_00000092440337704842401360000002255915897463077285_" gradientUnits="userSpaceOnUse" x1="69.232" y1="77.836" x2="90.0198" y2="77.836">
				<stop  offset="2.663895e-07" style="stop-color:#29ABE2"/>
				<stop  offset="1" style="stop-color:#FF00FF"/>
			</linearGradient>
			
				<path style="fill:none;stroke:url(#SVGID_00000092440337704842401360000002255915897463077285_);stroke-width:2.9706;stroke-miterlimit:10;" d="
				M86.01,91.84c-2.36,1.08-5.34-0.38-6.64-3.24l-8.04-17.64c-1.3-2.86-0.45-6.06,1.91-7.14c2.36-1.08,5.34,0.38,6.64,3.24
				l8.04,17.64C89.23,87.56,88.37,90.77,86.01,91.84z"/>
			
				<linearGradient id="SVGID_00000097458004209421732070000017267787761056282781_" gradientUnits="userSpaceOnUse" x1="49.8426" y1="70.4766" x2="61.8431" y2="70.4766">
				<stop  offset="2.663895e-07" style="stop-color:#29ABE2"/>
				<stop  offset="1" style="stop-color:#FF00FF"/>
			</linearGradient>
			
				<path style="fill:none;stroke:url(#SVGID_00000097458004209421732070000017267787761056282781_);stroke-width:2.9706;stroke-miterlimit:10;" d="
				M55.84,92.34L55.84,92.34c-2.48,0-4.51-2.03-4.51-4.51l0-34.69c0-2.48,2.03-4.51,4.51-4.51h0c2.48,0,4.51,2.03,4.51,4.51v34.69
				C60.36,90.3,58.33,92.34,55.84,92.34z"/>
			
				<linearGradient id="SVGID_00000052061672073769906280000012150824971305969046_" gradientUnits="userSpaceOnUse" x1="49.8426" y1="53.5088" x2="88.1801" y2="53.5088">
				<stop  offset="2.663895e-07" style="stop-color:#29ABE2"/>
				<stop  offset="1" style="stop-color:#FF00FF"/>
			</linearGradient>
			
				<path style="fill:none;stroke:url(#SVGID_00000052061672073769906280000012150824971305969046_);stroke-width:2.9706;stroke-miterlimit:10;" d="
				M73.85,71.19H57.26c-3.26,0-5.93-2.67-5.93-5.93V48.43c0-6.93,5.67-12.61,12.61-12.61h9.31c7.4,0,13.45,6.05,13.45,13.45v9.07
				C86.69,65.41,80.91,71.19,73.85,71.19z"/>
			
				<linearGradient id="SVGID_00000087376982773444459190000002396160593302439835_" gradientUnits="userSpaceOnUse" x1="59.2487" y1="53.885" x2="80.279" y2="53.885">
				<stop  offset="2.663895e-07" style="stop-color:#29ABE2"/>
				<stop  offset="1" style="stop-color:#FF00FF"/>
			</linearGradient>
			
				<path style="fill:none;stroke:url(#SVGID_00000087376982773444459190000002396160593302439835_);stroke-width:2.9706;stroke-miterlimit:10;" d="
				M71.84,64.04h-7.89c-1.77,0-3.21-1.45-3.21-3.21V50.55c0-3.76,3.07-6.83,6.83-6.83h3.95c4.01,0,7.28,3.28,7.28,7.28v6.08
				C78.79,60.91,75.66,64.04,71.84,64.04z"/>
		</g>
		<g>
			
				<linearGradient id="SVGID_00000079471550271220542560000002615948937897738143_" gradientUnits="userSpaceOnUse" x1="14.6789" y1="63.8299" x2="25.7272" y2="63.8299">
				<stop  offset="2.663895e-07" style="stop-color:#29ABE2"/>
				<stop  offset="1" style="stop-color:#FF00FF"/>
			</linearGradient>
			
				<path style="fill:none;stroke:url(#SVGID_00000079471550271220542560000002615948937897738143_);stroke-width:2.7709;stroke-miterlimit:10;" d="
				M20.48,84.45h-0.56c-2.12,0-3.86-1.74-3.86-3.86V47.07c0-2.12,1.74-3.86,3.86-3.86h0.56c2.12,0,3.86,1.74,3.86,3.86v33.53
				C24.34,82.72,22.6,84.45,20.48,84.45z"/>
			
				<linearGradient id="SVGID_00000036941997573113120740000001013003240040144040_" gradientUnits="userSpaceOnUse" x1="14.6789" y1="81.6668" x2="46.0443" y2="81.6668">
				<stop  offset="2.663895e-07" style="stop-color:#29ABE2"/>
				<stop  offset="1" style="stop-color:#FF00FF"/>
			</linearGradient>
			
				<path style="fill:none;stroke:url(#SVGID_00000036941997573113120740000001013003240040144040_);stroke-width:2.7709;stroke-miterlimit:10;" d="
				M24.34,79.54c-0.01,6.93,12.21,7.57,12.04,0c0-0.04,0.17-4.14,0.17-4.18c0-6.22,7.94-6.22,7.94,0l0.16,4.84
				c0,16.59-28.59,16.59-28.59,0"/>
			
				<linearGradient id="SVGID_00000141443639616947755550000004314534512513592969_" gradientUnits="userSpaceOnUse" x1="14.6789" y1="-1562.1704" x2="46.0443" y2="-1562.1704" gradientTransform="matrix(1 0 0 -1 0 -1515.75)">
				<stop  offset="2.663895e-07" style="stop-color:#29ABE2"/>
				<stop  offset="1" style="stop-color:#FF00FF"/>
			</linearGradient>
			
				<path style="fill:none;stroke:url(#SVGID_00000141443639616947755550000004314534512513592969_);stroke-width:2.7709;stroke-miterlimit:10;" d="
				M24.34,48.54c-0.01-6.93,12.21-7.57,12.04,0c0,0.04,0.17,4.14,0.17,4.18c0,6.22,7.94,6.22,7.94,0l0.16-4.84
				c0-16.59-28.59-16.59-28.59,0"/>
		</g>
		<g>
			
				<linearGradient id="SVGID_00000137120645420864965740000008965983697528088503_" gradientUnits="userSpaceOnUse" x1="173.1294" y1="40.8837" x2="208.9548" y2="40.8837">
				<stop  offset="2.663895e-07" style="stop-color:#29ABE2"/>
				<stop  offset="1" style="stop-color:#FF00FF"/>
			</linearGradient>
			
				<path style="fill:none;stroke:url(#SVGID_00000137120645420864965740000008965983697528088503_);stroke-width:3.2572;stroke-miterlimit:10;" d="
				M202.81,45.4h-23.54c-2.48,0-4.51-2.03-4.51-4.51v0c0-2.48,2.03-4.51,4.51-4.51h23.54c2.48,0,4.51,2.03,4.51,4.51v0
				C207.33,43.37,205.29,45.4,202.81,45.4z"/>
			
				<linearGradient id="SVGID_00000106147272913143889940000007355759555193885372_" gradientUnits="userSpaceOnUse" x1="185.1057" y1="64.0436" x2="196.3537" y2="64.0436">
				<stop  offset="2.663895e-07" style="stop-color:#29ABE2"/>
				<stop  offset="1" style="stop-color:#FF00FF"/>
			</linearGradient>
			
				<path style="fill:none;stroke:url(#SVGID_00000106147272913143889940000007355759555193885372_);stroke-width:2.9706;stroke-miterlimit:10;" d="
				M190.73,92.26L190.73,92.26c-2.28,0-4.14-1.86-4.14-4.14V39.96c0-2.28,1.86-4.14,4.14-4.14l0,0c2.28,0,4.14,1.86,4.14,4.14v48.16
				C194.87,90.4,193.01,92.26,190.73,92.26z"/>
		</g>
	</g>
</g>
</svg>
